<?xml version="1.0" encoding="UTF-8" standalone="no"?>
<!DOCTYPE svg PUBLIC "-//W3C//DTD SVG 1.1//EN"
 "http://www.w3.org/Graphics/SVG/1.1/DTD/svg11.dtd">
<!-- Generated by graphviz version 2.38.0 (20140413.2041)
 -->
<!-- Title: %3 Pages: 1 -->
<svg width="651pt" height="318pt"
 viewBox="0.00 0.00 650.86 318.00" xmlns="http://www.w3.org/2000/svg" xmlns:xlink="http://www.w3.org/1999/xlink">
<g id="graph0" class="graph" transform="scale(1 1) rotate(0) translate(4 314)">
<title>%3</title>
<polygon fill="white" stroke="none" points="-4,4 -4,-314 646.86,-314 646.86,4 -4,4"/>
<!-- Rhttp://example.com/s -->
<g id="node1" class="node"><title>Rhttp://example.com/s</title>
<ellipse fill="none" stroke="blue" cx="108.54" cy="-155" rx="108.581" ry="18"/>
<text text-anchor="middle" x="108.54" y="-151.3" font-family="Times,serif" font-size="14.00">http://example.com/s</text>
</g>
<!-- Rhttp://example.com/o1 -->
<g id="node2" class="node"><title>Rhttp://example.com/o1</title>
<ellipse fill="none" stroke="blue" cx="528.471" cy="-292" rx="114.28" ry="18"/>
<text text-anchor="middle" x="528.471" y="-288.3" font-family="Times,serif" font-size="14.00">http://example.com/o1</text>
</g>
<!-- Rhttp://example.com/s&#45;&gt;Rhttp://example.com/o1 -->
<g id="edge1" class="edge"><title>Rhttp://example.com/s&#45;&gt;Rhttp://example.com/o1</title>
<path fill="none" stroke="black" d="M130.217,-172.792C153.921,-192.199 194.727,-222.671 235.081,-239 292.375,-262.184 360.082,-275.276 415.906,-282.644"/>
<polygon fill="black" stroke="black" points="415.465,-286.116 425.828,-283.911 416.351,-279.173 415.465,-286.116"/>
<text text-anchor="middle" x="315.581" y="-282.8" font-family="Times,serif" font-size="14.00">http://example.com/p1</text>
</g>
<!-- Lo2 -->
<g id="node3" class="node"><title>Lo2</title>
<polygon fill="none" stroke="black" points="501.471,-219 501.471,-255 555.471,-255 555.471,-219 501.471,-219"/>
<text text-anchor="middle" x="528.471" y="-233.3" font-family="Times,serif" font-size="14.00">o2</text>
</g>
<!-- Rhttp://example.com/s&#45;&gt;Lo2 -->
<g id="edge2" class="edge"><title>Rhttp://example.com/s&#45;&gt;Lo2</title>
<path fill="none" stroke="black" d="M157.097,-171.168C180.39,-178.63 208.978,-187.118 235.081,-193 326.35,-213.567 435.86,-227.151 491.38,-233.27"/>
<polygon fill="black" stroke="black" points="491.103,-236.76 501.423,-234.36 491.859,-229.801 491.103,-236.76"/>
<text text-anchor="middle" x="315.581" y="-223.8" font-family="Times,serif" font-size="14.00">http://example.com/p1</text>
</g>
<!-- B_:o3 -->
<g id="node4" class="node"><title>B_:o3</title>
<ellipse fill="none" stroke="green" cx="528.471" cy="-182" rx="18" ry="18"/>
</g>
<!-- Rhttp://example.com/s&#45;&gt;B_:o3 -->
<g id="edge3" class="edge"><title>Rhttp://example.com/s&#45;&gt;B_:o3</title>
<path fill="none" stroke="black" d="M209.911,-161.484C305.204,-167.641 442.219,-176.492 500.057,-180.229"/>
<polygon fill="black" stroke="black" points="500.016,-183.734 510.221,-180.886 500.467,-176.748 500.016,-183.734"/>
<text text-anchor="middle" x="315.581" y="-177.8" font-family="Times,serif" font-size="14.00">http://example.com/p1</text>
</g>
<!-- Rhttp://example.com/o4 -->
<g id="node5" class="node"><title>Rhttp://example.com/o4</title>
<ellipse fill="none" stroke="blue" cx="528.471" cy="-128" rx="114.28" ry="18"/>
<text text-anchor="middle" x="528.471" y="-124.3" font-family="Times,serif" font-size="14.00">http://example.com/o4</text>
</g>
<!-- Rhttp://example.com/s&#45;&gt;Rhttp://example.com/o4 -->
<g id="edge4" class="edge"><title>Rhttp://example.com/s&#45;&gt;Rhttp://example.com/o4</title>
<path fill="none" stroke="black" d="M206.165,-147.094C215.931,-146.357 225.701,-145.646 235.081,-145 292.506,-141.044 356.32,-137.262 409.642,-134.275"/>
<polygon fill="black" stroke="black" points="410.027,-137.759 419.816,-133.707 409.637,-130.77 410.027,-137.759"/>
<text text-anchor="middle" x="315.581" y="-148.8" font-family="Times,serif" font-size="14.00">http://example.com/p2</text>
</g>
<!-- Lo5 -->
<g id="node6" class="node"><title>Lo5</title>
<polygon fill="none" stroke="black" points="501.471,-55 501.471,-91 555.471,-91 555.471,-55 501.471,-55"/>
<text text-anchor="middle" x="528.471" y="-69.3" font-family="Times,serif" font-size="14.00">o5</text>
</g>
<!-- Rhttp://example.com/s&#45;&gt;Lo5 -->
<g id="edge5" class="edge"><title>Rhttp://example.com/s&#45;&gt;Lo5</title>
<path fill="none" stroke="black" d="M157.097,-138.832C180.39,-131.37 208.978,-122.882 235.081,-117 326.35,-96.4329 435.86,-82.8493 491.38,-76.73"/>
<polygon fill="black" stroke="black" points="491.859,-80.1987 501.423,-75.64 491.103,-73.2396 491.859,-80.1987"/>
<text text-anchor="middle" x="315.581" y="-120.8" font-family="Times,serif" font-size="14.00">http://example.com/p2</text>
</g>
<!-- B_:o6 -->
<g id="node7" class="node"><title>B_:o6</title>
<ellipse fill="none" stroke="green" cx="528.471" cy="-18" rx="18" ry="18"/>
</g>
<!-- Rhttp://example.com/s&#45;&gt;B_:o6 -->
<g id="edge6" class="edge"><title>Rhttp://example.com/s&#45;&gt;B_:o6</title>
<path fill="none" stroke="black" d="M130.217,-137.208C153.921,-117.801 194.727,-87.3288 235.081,-71 327.5,-33.6032 447.009,-22.4648 500.041,-19.2513"/>
<polygon fill="black" stroke="black" points="500.525,-22.7299 510.315,-18.6793 500.136,-15.7407 500.525,-22.7299"/>
<text text-anchor="middle" x="315.581" y="-74.8" font-family="Times,serif" font-size="14.00">http://example.com/p2</text>
</g>
</g>
</svg>

