<?xml version="1.0" encoding="UTF-8" standalone="no"?>
<!DOCTYPE svg PUBLIC "-//W3C//DTD SVG 1.1//EN"
 "http://www.w3.org/Graphics/SVG/1.1/DTD/svg11.dtd">
<!-- Generated by graphviz version 2.38.0 (20140413.2041)
 -->
<!-- Title: %3 Pages: 1 -->
<svg width="896pt" height="100pt"
 viewBox="0.00 0.00 895.56 100.00" xmlns="http://www.w3.org/2000/svg" xmlns:xlink="http://www.w3.org/1999/xlink">
<g id="graph0" class="graph" transform="scale(1 1) rotate(0) translate(4 96)">
<title>%3</title>
<polygon fill="white" stroke="none" points="-4,4 -4,-96 891.559,-96 891.559,4 -4,4"/>
<!-- Rhttp://example.com/s1 -->
<g id="node1" class="node"><title>Rhttp://example.com/s1</title>
<ellipse fill="none" stroke="blue" cx="114.39" cy="-47.5" rx="114.28" ry="18"/>
<text text-anchor="middle" x="114.39" y="-43.8" font-family="Times,serif" font-size="14.00">http://example.com/s1</text>
</g>
<!-- Rhttp://example.com/s2 -->
<g id="node2" class="node"><title>Rhttp://example.com/s2</title>
<ellipse fill="none" stroke="blue" cx="531.17" cy="-72.5" rx="114.28" ry="18"/>
<text text-anchor="middle" x="531.17" y="-68.8" font-family="Times,serif" font-size="14.00">http://example.com/s2</text>
</g>
<!-- Rhttp://example.com/s1&#45;&gt;Rhttp://example.com/s2 -->
<g id="edge1" class="edge"><title>Rhttp://example.com/s1&#45;&gt;Rhttp://example.com/s2</title>
<path fill="none" stroke="black" d="M221.398,-53.8894C280.164,-57.4314 353.334,-61.8416 413.694,-65.4797"/>
<polygon fill="black" stroke="black" points="413.843,-68.9949 424.036,-66.103 414.264,-62.0076 413.843,-68.9949"/>
<text text-anchor="middle" x="322.78" y="-67.3" font-family="Times,serif" font-size="14.00">http://example.com/p</text>
</g>
<!-- B_:s3 -->
<g id="node3" class="node"><title>B_:s3</title>
<ellipse fill="none" stroke="green" cx="531.17" cy="-18.5" rx="18" ry="18"/>
</g>
<!-- Rhttp://example.com/s1&#45;&gt;B_:s3 -->
<g id="edge2" class="edge"><title>Rhttp://example.com/s1&#45;&gt;B_:s3</title>
<path fill="none" stroke="black" d="M215.091,-38.9413C225.786,-38.0864 236.507,-37.2562 246.78,-36.5 340.68,-29.5879 452.201,-22.9709 502.789,-20.0557"/>
<polygon fill="black" stroke="black" points="503.127,-23.5422 512.91,-19.4752 502.726,-16.5537 503.127,-23.5422"/>
<text text-anchor="middle" x="322.78" y="-40.3" font-family="Times,serif" font-size="14.00">http://example.com/p</text>
</g>
<!-- Lo1 -->
<g id="node4" class="node"><title>Lo1</title>
<polygon fill="none" stroke="black" points="833.559,-55.5 833.559,-91.5 887.559,-91.5 887.559,-55.5 833.559,-55.5"/>
<text text-anchor="middle" x="860.559" y="-69.8" font-family="Times,serif" font-size="14.00">o1</text>
</g>
<!-- Rhttp://example.com/s2&#45;&gt;Lo1 -->
<g id="edge3" class="edge"><title>Rhttp://example.com/s2&#45;&gt;Lo1</title>
<path fill="none" stroke="black" d="M645.756,-72.8469C707.899,-73.0368 780.705,-73.2591 823.318,-73.3893"/>
<polygon fill="black" stroke="black" points="823.466,-76.8897 833.477,-73.4203 823.488,-69.8897 823.466,-76.8897"/>
<text text-anchor="middle" x="739.559" y="-76.3" font-family="Times,serif" font-size="14.00">http://example.com/p</text>
</g>
<!-- Lo2 -->
<g id="node5" class="node"><title>Lo2</title>
<polygon fill="none" stroke="black" points="833.559,-0.5 833.559,-36.5 887.559,-36.5 887.559,-0.5 833.559,-0.5"/>
<text text-anchor="middle" x="860.559" y="-14.8" font-family="Times,serif" font-size="14.00">o2</text>
</g>
<!-- B_:s3&#45;&gt;Lo2 -->
<g id="edge4" class="edge"><title>B_:s3&#45;&gt;Lo2</title>
<path fill="none" stroke="black" d="M549.31,-18.5C600.494,-18.5 753.013,-18.5 823.324,-18.5"/>
<polygon fill="black" stroke="black" points="823.477,-22.0001 833.477,-18.5 823.477,-15.0001 823.477,-22.0001"/>
<text text-anchor="middle" x="739.559" y="-22.3" font-family="Times,serif" font-size="14.00">http://example.com/p</text>
</g>
</g>
</svg>

