<?xml version="1.0" encoding="UTF-8" standalone="no"?>
<!DOCTYPE svg PUBLIC "-//W3C//DTD SVG 1.1//EN"
 "http://www.w3.org/Graphics/SVG/1.1/DTD/svg11.dtd">
<!-- Generated by graphviz version 2.38.0 (20140413.2041)
 -->
<!-- Title: %3 Pages: 1 -->
<svg width="883pt" height="565pt"
 viewBox="0.00 0.00 883.08 565.00" xmlns="http://www.w3.org/2000/svg" xmlns:xlink="http://www.w3.org/1999/xlink">
<g id="graph0" class="graph" transform="scale(1 1) rotate(0) translate(4 561)">
<title>%3</title>
<polygon fill="white" stroke="none" points="-4,4 -4,-561 879.081,-561 879.081,4 -4,4"/>
<!-- Rhttp://example.com/s -->
<g id="node1" class="node"><title>Rhttp://example.com/s</title>
<ellipse fill="none" stroke="blue" cx="108.54" cy="-283.5" rx="108.581" ry="18"/>
<text text-anchor="middle" x="108.54" y="-279.8" font-family="Times,serif" font-size="14.00">http://example.com/s</text>
</g>
<!-- Lo -->
<g id="node2" class="node"><title>Lo</title>
<polygon fill="none" stroke="black" points="613.081,-520.5 613.081,-556.5 667.081,-556.5 667.081,-520.5 613.081,-520.5"/>
<text text-anchor="middle" x="640.081" y="-534.8" font-family="Times,serif" font-size="14.00">o</text>
</g>
<!-- Rhttp://example.com/s&#45;&gt;Lo -->
<g id="edge1" class="edge"><title>Rhttp://example.com/s&#45;&gt;Lo</title>
<path fill="none" stroke="black" d="M116.492,-301.458C131.873,-338.722 172.457,-424.623 235.081,-468.5 349.78,-548.864 526.801,-547.048 602.603,-541.902"/>
<polygon fill="black" stroke="black" points="602.896,-545.39 612.61,-541.162 602.379,-538.409 602.896,-545.39"/>
<text text-anchor="middle" x="311.081" y="-530.3" font-family="Times,serif" font-size="14.00">http://example.com/p</text>
</g>
<!-- Ltrue|Datatype: http://www.w3.org/2001/XMLSchema#boolean -->
<g id="node3" class="node"><title>Ltrue|Datatype: http://www.w3.org/2001/XMLSchema#boolean</title>
<polygon fill="none" stroke="black" points="426.581,-455.5 426.581,-501.5 853.581,-501.5 853.581,-455.5 426.581,-455.5"/>
<text text-anchor="middle" x="640.081" y="-486.3" font-family="Times,serif" font-size="14.00">true</text>
<polyline fill="none" stroke="black" points="426.581,-478.5 853.581,-478.5 "/>
<text text-anchor="middle" x="640.081" y="-463.3" font-family="Times,serif" font-size="14.00">Datatype: http://www.w3.org/2001/XMLSchema#boolean</text>
</g>
<!-- Rhttp://example.com/s&#45;&gt;Ltrue|Datatype: http://www.w3.org/2001/XMLSchema#boolean -->
<g id="edge2" class="edge"><title>Rhttp://example.com/s&#45;&gt;Ltrue|Datatype: http://www.w3.org/2001/XMLSchema#boolean</title>
<path fill="none" stroke="black" d="M125.191,-301.5C147.336,-325.91 190.15,-369.343 235.081,-394.5 290.112,-425.313 355.074,-444.867 416.628,-457.263"/>
<polygon fill="black" stroke="black" points="415.989,-460.704 426.475,-459.191 417.334,-453.834 415.989,-460.704"/>
<text text-anchor="middle" x="311.081" y="-453.3" font-family="Times,serif" font-size="14.00">http://example.com/p</text>
</g>
<!-- L255|Datatype: http://www.w3.org/2001/XMLSchema#unsignedByte -->
<g id="node4" class="node"><title>L255|Datatype: http://www.w3.org/2001/XMLSchema#unsignedByte</title>
<polygon fill="none" stroke="black" points="405.081,-390.5 405.081,-436.5 875.081,-436.5 875.081,-390.5 405.081,-390.5"/>
<text text-anchor="middle" x="640.081" y="-421.3" font-family="Times,serif" font-size="14.00">255</text>
<polyline fill="none" stroke="black" points="405.081,-413.5 875.081,-413.5 "/>
<text text-anchor="middle" x="640.081" y="-398.3" font-family="Times,serif" font-size="14.00">Datatype: http://www.w3.org/2001/XMLSchema#unsignedByte</text>
</g>
<!-- Rhttp://example.com/s&#45;&gt;L255|Datatype: http://www.w3.org/2001/XMLSchema#unsignedByte -->
<g id="edge3" class="edge"><title>Rhttp://example.com/s&#45;&gt;L255|Datatype: http://www.w3.org/2001/XMLSchema#unsignedByte</title>
<path fill="none" stroke="black" d="M144.366,-300.615C169.224,-312.369 203.681,-327.733 235.081,-338.5 300.791,-361.032 374.965,-377.274 441.656,-388.751"/>
<polygon fill="black" stroke="black" points="441.422,-392.261 451.866,-390.481 442.591,-385.359 441.422,-392.261"/>
<text text-anchor="middle" x="311.081" y="-379.3" font-family="Times,serif" font-size="14.00">http://example.com/p</text>
</g>
<!-- L9999&#45;12&#45;31T23:59:59.999999+00:00|Datatype: http://www.w3.org/2001/XMLSchema#dateTime -->
<g id="node5" class="node"><title>L9999&#45;12&#45;31T23:59:59.999999+00:00|Datatype: http://www.w3.org/2001/XMLSchema#dateTime</title>
<polygon fill="none" stroke="black" points="421.081,-325.5 421.081,-371.5 859.081,-371.5 859.081,-325.5 421.081,-325.5"/>
<text text-anchor="middle" x="640.081" y="-356.3" font-family="Times,serif" font-size="14.00">9999&#45;12&#45;31T23:59:59.999999+00:00</text>
<polyline fill="none" stroke="black" points="421.081,-348.5 859.081,-348.5 "/>
<text text-anchor="middle" x="640.081" y="-333.3" font-family="Times,serif" font-size="14.00">Datatype: http://www.w3.org/2001/XMLSchema#dateTime</text>
</g>
<!-- Rhttp://example.com/s&#45;&gt;L9999&#45;12&#45;31T23:59:59.999999+00:00|Datatype: http://www.w3.org/2001/XMLSchema#dateTime -->
<g id="edge4" class="edge"><title>Rhttp://example.com/s&#45;&gt;L9999&#45;12&#45;31T23:59:59.999999+00:00|Datatype: http://www.w3.org/2001/XMLSchema#dateTime</title>
<path fill="none" stroke="black" d="M187.83,-295.804C203.466,-298.133 219.784,-300.472 235.081,-302.5 292.965,-310.173 355.62,-317.69 413.92,-324.35"/>
<polygon fill="black" stroke="black" points="413.661,-327.843 423.992,-325.498 414.453,-320.888 413.661,-327.843"/>
<text text-anchor="middle" x="311.081" y="-323.3" font-family="Times,serif" font-size="14.00">http://example.com/p</text>
</g>
<!-- L79228162514264337593543950335|Datatype: http://www.w3.org/2001/XMLSchema#decimal -->
<g id="node6" class="node"><title>L79228162514264337593543950335|Datatype: http://www.w3.org/2001/XMLSchema#decimal</title>
<polygon fill="none" stroke="black" points="426.081,-260.5 426.081,-306.5 854.081,-306.5 854.081,-260.5 426.081,-260.5"/>
<text text-anchor="middle" x="640.081" y="-291.3" font-family="Times,serif" font-size="14.00">79228162514264337593543950335</text>
<polyline fill="none" stroke="black" points="426.081,-283.5 854.081,-283.5 "/>
<text text-anchor="middle" x="640.081" y="-268.3" font-family="Times,serif" font-size="14.00">Datatype: http://www.w3.org/2001/XMLSchema#decimal</text>
</g>
<!-- Rhttp://example.com/s&#45;&gt;L79228162514264337593543950335|Datatype: http://www.w3.org/2001/XMLSchema#decimal -->
<g id="edge5" class="edge"><title>Rhttp://example.com/s&#45;&gt;L79228162514264337593543950335|Datatype: http://www.w3.org/2001/XMLSchema#decimal</title>
<path fill="none" stroke="black" d="M217.339,-283.5C274.552,-283.5 347.07,-283.5 415.769,-283.5"/>
<polygon fill="black" stroke="black" points="415.874,-287 425.874,-283.5 415.874,-280 415.874,-287"/>
<text text-anchor="middle" x="311.081" y="-287.3" font-family="Times,serif" font-size="14.00">http://example.com/p</text>
</g>
<!-- L1.79769313486232E+308|Datatype: http://www.w3.org/2001/XMLSchema#double -->
<g id="node7" class="node"><title>L1.79769313486232E+308|Datatype: http://www.w3.org/2001/XMLSchema#double</title>
<polygon fill="none" stroke="black" points="430.581,-195.5 430.581,-241.5 849.581,-241.5 849.581,-195.5 430.581,-195.5"/>
<text text-anchor="middle" x="640.081" y="-226.3" font-family="Times,serif" font-size="14.00">1.79769313486232E+308</text>
<polyline fill="none" stroke="black" points="430.581,-218.5 849.581,-218.5 "/>
<text text-anchor="middle" x="640.081" y="-203.3" font-family="Times,serif" font-size="14.00">Datatype: http://www.w3.org/2001/XMLSchema#double</text>
</g>
<!-- Rhttp://example.com/s&#45;&gt;L1.79769313486232E+308|Datatype: http://www.w3.org/2001/XMLSchema#double -->
<g id="edge6" class="edge"><title>Rhttp://example.com/s&#45;&gt;L1.79769313486232E+308|Datatype: http://www.w3.org/2001/XMLSchema#double</title>
<path fill="none" stroke="black" d="M187.83,-271.196C203.466,-268.867 219.784,-266.528 235.081,-264.5 295.156,-256.537 360.37,-248.741 420.521,-241.897"/>
<polygon fill="black" stroke="black" points="420.977,-245.368 430.518,-240.763 420.187,-238.412 420.977,-245.368"/>
<text text-anchor="middle" x="311.081" y="-268.3" font-family="Times,serif" font-size="14.00">http://example.com/p</text>
</g>
<!-- L3.402823E+38|Datatype: http://www.w3.org/2001/XMLSchema#float -->
<g id="node8" class="node"><title>L3.402823E+38|Datatype: http://www.w3.org/2001/XMLSchema#float</title>
<polygon fill="none" stroke="black" points="438.581,-130.5 438.581,-176.5 841.581,-176.5 841.581,-130.5 438.581,-130.5"/>
<text text-anchor="middle" x="640.081" y="-161.3" font-family="Times,serif" font-size="14.00">3.402823E+38</text>
<polyline fill="none" stroke="black" points="438.581,-153.5 841.581,-153.5 "/>
<text text-anchor="middle" x="640.081" y="-138.3" font-family="Times,serif" font-size="14.00">Datatype: http://www.w3.org/2001/XMLSchema#float</text>
</g>
<!-- Rhttp://example.com/s&#45;&gt;L3.402823E+38|Datatype: http://www.w3.org/2001/XMLSchema#float -->
<g id="edge7" class="edge"><title>Rhttp://example.com/s&#45;&gt;L3.402823E+38|Datatype: http://www.w3.org/2001/XMLSchema#float</title>
<path fill="none" stroke="black" d="M143.496,-266.316C168.377,-254.231 203.226,-238.344 235.081,-227.5 299.928,-205.424 372.999,-189.496 438.989,-178.21"/>
<polygon fill="black" stroke="black" points="439.814,-181.621 449.094,-176.509 438.651,-174.718 439.814,-181.621"/>
<text text-anchor="middle" x="311.081" y="-231.3" font-family="Times,serif" font-size="14.00">http://example.com/p</text>
</g>
<!-- L9223372036854775807|Datatype: http://www.w3.org/2001/XMLSchema#integer -->
<g id="node9" class="node"><title>L9223372036854775807|Datatype: http://www.w3.org/2001/XMLSchema#integer</title>
<polygon fill="none" stroke="black" points="428.581,-65.5 428.581,-111.5 851.581,-111.5 851.581,-65.5 428.581,-65.5"/>
<text text-anchor="middle" x="640.081" y="-96.3" font-family="Times,serif" font-size="14.00">9223372036854775807</text>
<polyline fill="none" stroke="black" points="428.581,-88.5 851.581,-88.5 "/>
<text text-anchor="middle" x="640.081" y="-73.3" font-family="Times,serif" font-size="14.00">Datatype: http://www.w3.org/2001/XMLSchema#integer</text>
</g>
<!-- Rhttp://example.com/s&#45;&gt;L9223372036854775807|Datatype: http://www.w3.org/2001/XMLSchema#integer -->
<g id="edge8" class="edge"><title>Rhttp://example.com/s&#45;&gt;L9223372036854775807|Datatype: http://www.w3.org/2001/XMLSchema#integer</title>
<path fill="none" stroke="black" d="M124.692,-265.477C146.577,-240.568 189.444,-195.833 235.081,-170.5 290.691,-139.631 356.379,-120.312 418.445,-108.244"/>
<polygon fill="black" stroke="black" points="419.196,-111.664 428.373,-106.369 417.897,-104.786 419.196,-111.664"/>
<text text-anchor="middle" x="311.081" y="-174.3" font-family="Times,serif" font-size="14.00">http://example.com/p</text>
</g>
<!-- LP10675199DT2H48M5.4775807S|Datatype: http://www.w3.org/2001/XMLSchema#duration -->
<g id="node10" class="node"><title>LP10675199DT2H48M5.4775807S|Datatype: http://www.w3.org/2001/XMLSchema#duration</title>
<polygon fill="none" stroke="black" points="424.081,-0.5 424.081,-46.5 856.081,-46.5 856.081,-0.5 424.081,-0.5"/>
<text text-anchor="middle" x="640.081" y="-31.3" font-family="Times,serif" font-size="14.00">P10675199DT2H48M5.4775807S</text>
<polyline fill="none" stroke="black" points="424.081,-23.5 856.081,-23.5 "/>
<text text-anchor="middle" x="640.081" y="-8.3" font-family="Times,serif" font-size="14.00">Datatype: http://www.w3.org/2001/XMLSchema#duration</text>
</g>
<!-- Rhttp://example.com/s&#45;&gt;LP10675199DT2H48M5.4775807S|Datatype: http://www.w3.org/2001/XMLSchema#duration -->
<g id="edge9" class="edge"><title>Rhttp://example.com/s&#45;&gt;LP10675199DT2H48M5.4775807S|Datatype: http://www.w3.org/2001/XMLSchema#duration</title>
<path fill="none" stroke="black" d="M116.377,-265.265C131.54,-227.442 171.736,-140.334 235.081,-96.5 287.168,-60.4562 351.779,-40.6402 413.94,-30.1287"/>
<polygon fill="black" stroke="black" points="414.58,-33.5709 423.893,-28.5205 413.463,-26.6605 414.58,-33.5709"/>
<text text-anchor="middle" x="311.081" y="-100.3" font-family="Times,serif" font-size="14.00">http://example.com/p</text>
</g>
</g>
</svg>

