<?xml version="1.0" encoding="UTF-8" standalone="no"?>
<!DOCTYPE svg PUBLIC "-//W3C//DTD SVG 1.1//EN"
 "http://www.w3.org/Graphics/SVG/1.1/DTD/svg11.dtd">
<!-- Generated by graphviz version 2.38.0 (20140413.2041)
 -->
<!-- Title: %3 Pages: 1 -->
<svg width="914pt" height="155pt"
 viewBox="0.00 0.00 913.56 155.00" xmlns="http://www.w3.org/2000/svg" xmlns:xlink="http://www.w3.org/1999/xlink">
<g id="graph0" class="graph" transform="scale(1 1) rotate(0) translate(4 151)">
<title>%3</title>
<polygon fill="white" stroke="none" points="-4,4 -4,-151 909.559,-151 909.559,4 -4,4"/>
<!-- B_:genid1 -->
<g id="node1" class="node"><title>B_:genid1</title>
<ellipse fill="none" stroke="green" cx="540.17" cy="-128.5" rx="18" ry="18"/>
</g>
<!-- Lo2 -->
<g id="node2" class="node"><title>Lo2</title>
<polygon fill="none" stroke="black" points="851.559,-110.5 851.559,-146.5 905.559,-146.5 905.559,-110.5 851.559,-110.5"/>
<text text-anchor="middle" x="878.559" y="-124.8" font-family="Times,serif" font-size="14.00">o2</text>
</g>
<!-- B_:genid1&#45;&gt;Lo2 -->
<g id="edge1" class="edge"><title>B_:genid1&#45;&gt;Lo2</title>
<path fill="none" stroke="black" d="M558.314,-128.5C610.527,-128.5 768.413,-128.5 840.702,-128.5"/>
<polygon fill="black" stroke="black" points="841.133,-132 851.133,-128.5 841.133,-125 841.133,-132"/>
<text text-anchor="middle" x="753.059" y="-132.3" font-family="Times,serif" font-size="14.00">http://example.com/p2</text>
</g>
<!-- Rhttp://example.com/s1 -->
<g id="node3" class="node"><title>Rhttp://example.com/s1</title>
<ellipse fill="none" stroke="blue" cx="114.39" cy="-73.5" rx="114.28" ry="18"/>
<text text-anchor="middle" x="114.39" y="-69.8" font-family="Times,serif" font-size="14.00">http://example.com/s1</text>
</g>
<!-- Rhttp://example.com/s1&#45;&gt;B_:genid1 -->
<g id="edge4" class="edge"><title>Rhttp://example.com/s1&#45;&gt;B_:genid1</title>
<path fill="none" stroke="black" d="M198.409,-85.7761C214.45,-88.0715 231.131,-90.4055 246.78,-92.5 344.273,-105.55 460.301,-119.31 511.992,-125.348"/>
<polygon fill="black" stroke="black" points="511.678,-128.835 522.016,-126.516 512.488,-121.882 511.678,-128.835"/>
<text text-anchor="middle" x="327.28" y="-116.3" font-family="Times,serif" font-size="14.00">http://example.com/p1</text>
</g>
<!-- Lo1 -->
<g id="node4" class="node"><title>Lo1</title>
<polygon fill="none" stroke="black" points="513.17,-55.5 513.17,-91.5 567.17,-91.5 567.17,-55.5 513.17,-55.5"/>
<text text-anchor="middle" x="540.17" y="-69.8" font-family="Times,serif" font-size="14.00">o1</text>
</g>
<!-- Rhttp://example.com/s1&#45;&gt;Lo1 -->
<g id="edge2" class="edge"><title>Rhttp://example.com/s1&#45;&gt;Lo1</title>
<path fill="none" stroke="black" d="M228.955,-73.5C320.313,-73.5 443.005,-73.5 503.032,-73.5"/>
<polygon fill="black" stroke="black" points="503.147,-77.0001 513.147,-73.5 503.147,-70.0001 503.147,-77.0001"/>
<text text-anchor="middle" x="327.28" y="-77.3" font-family="Times,serif" font-size="14.00">http://example.com/p1</text>
</g>
<!-- Rhttp://example.com/s2 -->
<g id="node5" class="node"><title>Rhttp://example.com/s2</title>
<ellipse fill="none" stroke="blue" cx="540.17" cy="-18.5" rx="114.28" ry="18"/>
<text text-anchor="middle" x="540.17" y="-14.8" font-family="Times,serif" font-size="14.00">http://example.com/s2</text>
</g>
<!-- Rhttp://example.com/s1&#45;&gt;Rhttp://example.com/s2 -->
<g id="edge3" class="edge"><title>Rhttp://example.com/s1&#45;&gt;Rhttp://example.com/s2</title>
<path fill="none" stroke="black" d="M198.409,-61.2239C214.45,-58.9285 231.131,-56.5945 246.78,-54.5 310.263,-46.0027 381.606,-37.204 437.927,-30.4323"/>
<polygon fill="black" stroke="black" points="438.392,-33.9016 447.904,-29.235 437.558,-26.9515 438.392,-33.9016"/>
<text text-anchor="middle" x="327.28" y="-58.3" font-family="Times,serif" font-size="14.00">http://example.com/p1</text>
</g>
<!-- Lo3 -->
<g id="node6" class="node"><title>Lo3</title>
<polygon fill="none" stroke="black" points="851.559,-0.5 851.559,-36.5 905.559,-36.5 905.559,-0.5 851.559,-0.5"/>
<text text-anchor="middle" x="878.559" y="-14.8" font-family="Times,serif" font-size="14.00">o3</text>
</g>
<!-- Rhttp://example.com/s2&#45;&gt;Lo3 -->
<g id="edge5" class="edge"><title>Rhttp://example.com/s2&#45;&gt;Lo3</title>
<path fill="none" stroke="black" d="M654.587,-18.5C719.569,-18.5 796.796,-18.5 841.201,-18.5"/>
<polygon fill="black" stroke="black" points="841.225,-22.0001 851.225,-18.5 841.225,-15.0001 841.225,-22.0001"/>
<text text-anchor="middle" x="753.059" y="-22.3" font-family="Times,serif" font-size="14.00">http://example.com/p3</text>
</g>
</g>
</svg>

